<?xml version="1.0" ?>
<!DOCTYPE svg  PUBLIC '-//W3C//DTD SVG 1.1//EN'  'http://www.w3.org/Graphics/SVG/1.1/DTD/svg11.dtd'>
<!-- Uploaded to: SVG Repo, www.svgrepo.com, Generator: SVG Repo Mixer Tools -->
<svg fill="#000000" width="800px" height="800px" viewBox="0 0 32 32" style="fill-rule:evenodd;clip-rule:evenodd;stroke-linejoin:round;stroke-miterlimit:2;" version="1.1" xml:space="preserve" xmlns="http://www.w3.org/2000/svg" xmlns:serif="http://www.serif.com/" xmlns:xlink="http://www.w3.org/1999/xlink">
<g transform="matrix(1,0,0,1,-432,-96)">
<g transform="matrix(2,0,0,1.89474,-448,-92.2632)">
<path d="M452,106L452,112.556L444,112.556L444,106C444,103.792 445.792,102 448,102C450.208,102 452,103.792 452,106Z" style="fill:rgb(144,224,239);"/>
</g>
<g transform="matrix(1,0,0,1,0,-3)">
<path d="M451,125C451,126.656 449.656,128 448,128C446.344,128 445,126.656 445,125" style="fill:rgb(144,224,239);"/>
</g>
<path d="M447,100.052C442.491,100.528 439,104.18 439,108.579L439,120L438,120C437.448,120 437,120.448 437,121C437,121.552 437.448,122 438,122L444,122L444,122.013C444.001,122.217 444.017,122.42 444.048,122.621C444.098,122.942 444.188,123.257 444.315,123.556C444.507,124.012 444.786,124.43 445.13,124.785C445.463,125.128 445.857,125.411 446.288,125.616C446.66,125.792 447.058,125.91 447.466,125.965C447.903,126.023 448.349,126.009 448.781,125.924C449.154,125.85 449.516,125.722 449.853,125.545C450.251,125.337 450.613,125.061 450.92,124.733C451.222,124.41 451.47,124.038 451.651,123.634C451.793,123.32 451.893,122.987 451.948,122.646C451.982,122.437 451.999,122.225 452,122.013L452,122L458,122C458.552,122 459,121.552 459,121C459,120.448 458.552,120 458,120L457,120L457,108.579C457,104.18 453.509,100.528 449,100.052L449,99C449,98.448 448.552,98 448,98C447.448,98 447,98.448 447,99L447,100.052ZM446,122C446,123.104 446.896,124 448,124C449.104,124 450,123.104 450,122L446,122ZM455,120L441,120C441,120 441,108.579 441,108.579C441,104.933 444.151,102 448,102C451.849,102 455,104.933 455,108.579L455,120Z" style="fill:rgb(25,144,167);"/>
</g>
</svg>