<svg xmlns="http://www.w3.org/2000/svg"  viewBox="0 0 64 64" width="64px" height="64px"><linearGradient id="ojxs_RS1~BeeBtSHUxpmva" x1="39.938" x2="39.938" y1="30" y2="39" gradientUnits="userSpaceOnUse" spreadMethod="reflect"><stop offset="0" stop-color="#6dc7ff"/><stop offset="1" stop-color="#e6abff"/></linearGradient><path fill="url(#ojxs_RS1~BeeBtSHUxpmva)" d="M39.938 30A3.938 4.5 0 1 0 39.938 39A3.938 4.5 0 1 0 39.938 30Z"/><linearGradient id="ojxs_RS1~BeeBtSHUxpmvb" x1="31.999" x2="31.999" y1="10.961" y2="53" gradientUnits="userSpaceOnUse" spreadMethod="reflect"><stop offset="0" stop-color="#1a6dff"/><stop offset="1" stop-color="#c822ff"/></linearGradient><path fill="url(#ojxs_RS1~BeeBtSHUxpmvb)" d="M52.263,15.938c-4.816-3.871-13.024-4.925-13.372-4.968c-0.437-0.057-0.855,0.182-1.035,0.583 c-0.025,0.055-0.543,1.23-0.778,2.782C35.086,14.073,33.313,14,31.983,14c-1.373,0-3.216,0.076-5.289,0.36 c-0.233-1.564-0.757-2.753-0.782-2.808c-0.18-0.401-0.598-0.636-1.039-0.583c-0.337,0.043-8.322,1.099-13.188,5.013 C9.122,18.35,4,32.125,4,44c0,0.173,0.045,0.344,0.131,0.495c3.427,6.02,13.558,8.432,15.837,8.505c0.011,0,0.021,0,0.032,0 c0.303,0,0.591-0.138,0.781-0.375l3.495-4.368C26.519,48.703,29.098,49,32.024,49c2.911,0,5.474-0.294,7.706-0.737l3.49,4.362 C43.409,52.862,43.697,53,44,53c0.011,0,0.021,0,0.032,0c2.274-0.073,12.39-2.495,15.835-8.547c0.086-0.15,0.131-0.321,0.131-0.495 C59.999,32.105,54.877,18.349,52.263,15.938z M44.451,50.963l-2.56-3.2c5.635-1.499,8.568-3.846,8.744-3.99 c0.426-0.35,0.487-0.978,0.139-1.405c-0.349-0.426-0.978-0.49-1.406-0.143C49.309,42.273,43.365,47,32.024,47 c-11.331,0-17.322-4.719-17.394-4.776c-0.427-0.348-1.057-0.284-1.405,0.145c-0.349,0.428-0.285,1.058,0.144,1.407 c0.177,0.144,3.121,2.48,8.748,3.979l-2.567,3.209c-2.906-0.323-10.736-2.658-13.547-7.236c0.078-11.308,5.015-24.405,6.989-26.232 c3.547-2.851,9.281-4.06,11.356-4.42c0.133,0.413,0.281,0.98,0.373,1.611c-2.991,0.579-6.274,1.619-9.246,3.463 c-0.47,0.291-0.614,0.907-0.323,1.376c0.292,0.471,0.907,0.616,1.376,0.323C21.928,16.5,28.529,16,31.983,16 c3.467,0,10.089,0.5,15.49,3.85c0.164,0.102,0.346,0.15,0.526,0.15c0.334,0,0.662-0.168,0.851-0.473 c0.292-0.469,0.147-1.085-0.323-1.376c-3.043-1.888-6.417-2.931-9.473-3.502c0.093-0.618,0.239-1.171,0.369-1.576 c2.109,0.352,8.01,1.549,11.534,4.379c2.026,1.871,6.961,14.95,7.04,26.235C55.172,48.292,47.352,50.64,44.451,50.963z"/><linearGradient id="ojxs_RS1~BeeBtSHUxpmvc" x1="24" x2="24" y1="30" y2="39" gradientUnits="userSpaceOnUse" spreadMethod="reflect"><stop offset="0" stop-color="#6dc7ff"/><stop offset="1" stop-color="#e6abff"/></linearGradient><path fill="url(#ojxs_RS1~BeeBtSHUxpmvc)" d="M24 30A4 4.5 0 1 0 24 39A4 4.5 0 1 0 24 30Z"/></svg>