<svg xmlns="http://www.w3.org/2000/svg"  viewBox="0 0 64 64" width="64px" height="64px"><linearGradient id="PMWUiMSnUf2R_PPJ6rqZea" x1="32" x2="32" y1="10" y2="54.751" gradientUnits="userSpaceOnUse" spreadMethod="reflect"><stop offset="0" stop-color="#1a6dff"/><stop offset="1" stop-color="#c822ff"/></linearGradient><path fill="url(#PMWUiMSnUf2R_PPJ6rqZea)" d="M32,53.001c-6.358,0-12.716-0.195-19.299-0.584c-4.96-0.293-8.961-4.242-9.308-9.187 c-0.521-7.452-0.521-15.009-0.001-22.46c0.348-4.945,4.349-8.895,9.309-9.188c13.167-0.778,25.433-0.778,38.598,0 c4.96,0.293,8.961,4.242,9.308,9.187c0.521,7.452,0.521,15.009,0.001,22.46c-0.348,4.945-4.349,8.895-9.309,9.188l0,0 C44.716,52.806,38.358,53.001,32,53.001z M51.182,50.421l0.059,0.998L51.182,50.421c3.959-0.234,7.153-3.386,7.431-7.331 c0.515-7.358,0.515-14.821-0.001-22.181c-0.276-3.944-3.471-7.096-7.43-7.33c-13.088-0.773-25.275-0.773-38.363,0 c-3.959,0.234-7.153,3.386-7.431,7.331c-0.515,7.358-0.515,14.821,0.001,22.181c0.276,3.944,3.471,7.096,7.43,7.33 C25.906,51.194,38.094,51.194,51.182,50.421z"/><linearGradient id="PMWUiMSnUf2R_PPJ6rqZeb" x1="31.72" x2="31.72" y1="24.25" y2="39.252" gradientUnits="userSpaceOnUse" spreadMethod="reflect"><stop offset="0" stop-color="#6dc7ff"/><stop offset="1" stop-color="#e6abff"/></linearGradient><path fill="url(#PMWUiMSnUf2R_PPJ6rqZeb)" d="M25 39.84L25 24.16 38.44 32z"/><linearGradient id="PMWUiMSnUf2R_PPJ6rqZec" x1="32.212" x2="32.212" y1="10" y2="54.751" gradientUnits="userSpaceOnUse" spreadMethod="reflect"><stop offset="0" stop-color="#1a6dff"/><stop offset="1" stop-color="#c822ff"/></linearGradient><path fill="url(#PMWUiMSnUf2R_PPJ6rqZec)" d="M24,41.581V22.419L40.425,32L24,41.581z M26,25.901v12.197L36.456,32L26,25.901z"/></svg>