<?xml version="1.0" standalone="no"?>
<!DOCTYPE svg PUBLIC "-//W3C//DTD SVG 20010904//EN"
 "http://www.w3.org/TR/2001/REC-SVG-20010904/DTD/svg10.dtd">
<svg version="1.0" xmlns="http://www.w3.org/2000/svg"
 width="256.000000pt" height="256.000000pt" viewBox="0 0 256.000000 256.000000"
 preserveAspectRatio="xMidYMid meet">

<g transform="translate(0.000000,256.000000) scale(0.100000,-0.100000)"
fill="#000000" stroke="none">
<path d="M0 1280 l0 -1280 1280 0 1280 0 0 1280 0 1280 -1280 0 -1280 0 0
-1280z m1741 940 c364 -109 438 -134 457 -155 l22 -26 0 -463 c0 -512 -5 -572
-61 -716 -106 -277 -381 -494 -792 -626 l-87 -28 -103 33 c-126 41 -324 134
-420 198 -162 107 -296 266 -356 422 -56 145 -61 204 -61 717 l0 463 23 25
c18 22 94 47 452 155 237 71 444 129 461 130 16 0 226 -57 465 -129z"/>
<path d="M846 2160 c-236 -71 -433 -134 -438 -142 -5 -7 -7 -216 -5 -478 4
-517 7 -544 73 -688 103 -226 297 -386 629 -518 159 -63 190 -63 350 0 388
152 595 352 676 651 21 76 22 105 26 550 2 264 0 476 -5 483 -7 11 -855 274
-872 271 -3 0 -198 -59 -434 -129z m1038 -376 c14 -5 16 -53 16 -430 0 -370
-2 -425 -15 -430 -8 -4 -22 -1 -30 6 -13 11 -15 72 -15 424 0 437 1 446 44
430z m-1007 -259 c50 -21 72 -42 94 -90 39 -83 11 -184 -64 -233 -58 -38 -146
-38 -204 0 -92 60 -109 198 -35 282 45 50 141 69 209 41z m400 -4 c63 -29 98
-88 98 -166 0 -71 -24 -115 -83 -156 -52 -35 -143 -34 -199 3 -73 48 -101 144
-68 225 21 50 42 72 90 94 51 24 109 24 162 0z m391 -2 c53 -26 90 -79 98
-142 6 -38 2 -56 -20 -101 -22 -46 -35 -59 -78 -80 -58 -29 -95 -32 -151 -12
-80 29 -122 97 -115 187 10 133 143 207 266 148z"/>
<path d="M753 1464 c-20 -10 -40 -32 -53 -60 -18 -37 -20 -49 -11 -77 39 -118
193 -118 232 0 14 43 -11 98 -60 130 -40 27 -64 28 -108 7z"/>
<path d="M1140 1462 c-19 -11 -43 -36 -53 -56 -17 -32 -18 -43 -8 -76 24 -80
112 -117 178 -74 78 50 72 154 -10 204 -40 25 -63 25 -107 2z"/>
<path d="M1530 1462 c-73 -38 -88 -131 -32 -185 56 -54 129 -52 176 4 50 59
28 147 -44 184 -38 20 -58 19 -100 -3z"/>
</g>
</svg>
